# xmcd
#
# Track frame offsets:
#	150
#	13460
#	24499
#	40749
#	57364
#	70540
#	88767
#	103290
#	116713
#	137082
#	150765
#	166002
#	184873
#	196851
#
# Disc length: 2766 seconds
# Revision: 0
# Processed by: cddbd v1.5.2PL0 Copyright (c) Steve Scherf et al.
# Submitted via: dBpowerAMP V12.0
#
DISCID=b30acc0e
DTITLE=Dean Owens - Cashback
DYEAR=2012
DGENRE=Country
TTITLE0=No Expectation
TTITLE1=A Little At A Time
TTITLE2=I Still Miss Someone
TTITLE3=Give My Love A Rose
TTITLE4=Delia's Gone
TTITLE5=Wayfaring Stranger
TTITLE6=Flesh and Blood
TTITLE7=Without Love
TTITLE8=Sunday Morning Coming Down
TTITLE9=Cocaine Carolina
TTITLE10=Girl From The North Country
TTITLE11=The Night Johnny Cash Played San Quentin
TTITLE12=I walk The Line
TTITLE13=A Little At A Time (Stripped Back version)
EXTD=
EXTT0=
EXTT1=
EXTT2=
EXTT3=
EXTT4=
EXTT5=
EXTT6=
EXTT7=
EXTT8=
EXTT9=
EXTT10=
EXTT11=
EXTT12=
EXTT13=
PLAYORDER=
